<svg xmlns="http://www.w3.org/2000/svg" xmlns:xlink="http://www.w3.org/1999/xlink" viewBox="0 0 261.26 476.81"><defs><style>.cls-1{fill:#4addff;stroke-width:9px;}.cls-1,.cls-11,.cls-5,.cls-6,.cls-7,.cls-9{stroke:#000;}.cls-1,.cls-11,.cls-2,.cls-3,.cls-4,.cls-5,.cls-6,.cls-7,.cls-8,.cls-9{stroke-miterlimit:10;}.cls-2{fill:#fff;stroke:#fff;}.cls-11,.cls-2,.cls-9{stroke-width:0.25px;}.cls-3{fill:#00435f;stroke:#00435f;}.cls-4{fill:#005c94;stroke:#005c94;}.cls-5,.cls-6,.cls-7,.cls-8{stroke-width:2px;}.cls-6{fill:red;}.cls-7{fill:blue;}.cls-8{fill:#ff0;stroke:#ff0;}.cls-9{fill:#ccc;}.cls-10{fill:url(#linear-gradient);}.cls-12{fill:url(#linear-gradient-2);}.cls-13{fill:url(#linear-gradient-3);}</style><linearGradient id="linear-gradient" x1="499.72" y1="-97.95" x2="511.84" y2="-97.95" gradientTransform="matrix(0.93, 0.61, -0.6, 0.92, -292.6, -114.39)" gradientUnits="userSpaceOnUse"><stop offset="0.48" stop-color="#ebebeb"/><stop offset="1"/></linearGradient><linearGradient id="linear-gradient-2" x1="478.06" y1="-84.14" x2="485.32" y2="-84.14" gradientTransform="translate(-264.1 -81.48) rotate(33.13) scale(1.11 1.1)" xlink:href="#linear-gradient"/><linearGradient id="linear-gradient-3" x1="454.35" y1="-84.88" x2="461.61" y2="-84.88" gradientTransform="translate(-257.68 -44.94) rotate(33.13) scale(1.11 1.1)" xlink:href="#linear-gradient"/></defs><g id="Layer_2" data-name="Layer 2"><g id="Layer_1-2" data-name="Layer 1"><path class="cls-1" d="M226.65,472.31h-193A29.1,29.1,0,0,1,4.5,443.24c0-56.4,13.08-85.63,16.49-208.91,1.17-42.43,20.46-40.51,20.46-74.68,0,0,23-10.13,6.41-69.62-.52-1.87-24.79-51.16-16.46-59.5,5.27-5.27,64.49,14.78,72.53,14.78L231.4,5.22c20.25,25.31-1.27,30.24,25.32,60.76.28.32-1,30.5-1,30.93l.08,346.28A29.12,29.12,0,0,1,226.65,472.31Z"/><polygon class="cls-2" points="188.26 467.24 72.01 467.24 97.22 84.96 188.26 45.31 188.26 467.24"/><path class="cls-3" d="M130.13,374.84l88.68,1.26q-9.23-19-18.46-38H130.13Z"/><path class="cls-3" d="M130.21,217.88h87A26.43,26.43,0,0,0,216,197.14a34.6,34.6,0,0,0-12.68-13.44l-73.13,1.68Z"/><path class="cls-3" d="M218.81,354.58,206,327l.83-101.51h12Z"/><path class="cls-4" d="M130.13,374.84,41.45,376.1l18.47-38h70.21Z"/><path class="cls-4" d="M130.05,217.88H43a26.43,26.43,0,0,1,1.24-20.74A34.61,34.61,0,0,1,56.93,183.7l73.12,1.68Z"/><path class="cls-4" d="M41.45,354.58,54.27,327l-.83-101.51h-12Z"/><rect class="cls-5" x="103.93" y="264.71" width="57.13" height="37.34"/><path class="cls-6" d="M186.29,302.05H150.82V264.71h35.47a19.69,19.69,0,0,1,0,37.34Z"/><path class="cls-7" d="M73.82,302.05h35.46V264.71H73.82a19.69,19.69,0,0,0,0,37.34Z"/><path class="cls-8" d="M60.76,45.31H36.16a5,5,0,0,1-4.86-3.82,5.3,5.3,0,0,1,4.86-6h24.6a5.11,5.11,0,0,1,0,9.85Z"/><path class="cls-8" d="M235.54,40.38H210.93a4.94,4.94,0,0,1-4.85-3.81,5.31,5.31,0,0,1,4.85-6h24.61a5.12,5.12,0,0,1,0,9.85Z"/><path class="cls-8" d="M235.54,451.77H210.93a4.93,4.93,0,0,1-4.85-3.81,5.3,5.3,0,0,1,4.85-6h24.61a5.11,5.11,0,0,1,0,9.84Z"/><path class="cls-8" d="M50.53,451.77H25.93A4.93,4.93,0,0,1,21.07,448a5.3,5.3,0,0,1,4.86-6h24.6a5.11,5.11,0,0,1,0,9.84Z"/><path class="cls-9" d="M240,107.48l.79.94-.68-1.24a11.1,11.1,0,0,0,.61-2.63,13.37,13.37,0,0,0,.07-1.42h1.52l-1.62-1.57a17.73,17.73,0,0,0-1.85-5.94h0V89.68l-1.58,3.62a5.35,5.35,0,0,0-1.22-1l-.14-.37V90.44l-1.29,1.1-.83.7-1-4.06.4,4.63A10.49,10.49,0,0,0,231.53,97l-.3.45L230,96.37l1.15,3.77c0,.67-.08,1.35-.07,2l-.78,1h.8l0,.52c0,.18,0,.58.1,1.12l-.15.43v2.51l.5-.76h0a13.82,13.82,0,0,0,.67,2.25h0l-.59,5.4,2.57-2.89a2.29,2.29,0,0,0,1,.25v2.94l1.64-3.36a5.1,5.1,0,0,0,1.16-.87l2.1,3.93-1.38-4.74A10,10,0,0,0,240,107.48Z"/><ellipse class="cls-10" cx="235.69" cy="102.1" rx="7.63" ry="3.82" transform="translate(132.6 337.36) rotate(-89.76)"/><path class="cls-11" d="M238,104l.41.43-.35-.57a5,5,0,0,0,.31-1.24,4.78,4.78,0,0,0,0-.66h.79l-.85-.74a7.59,7.59,0,0,0-1-2.78h0V95.69l-.82,1.7a2.64,2.64,0,0,0-.63-.48l-.08-.18v-.68l-.67.51-.43.33-.51-1.9.21,2.17a4.56,4.56,0,0,0-.87,2l-.16.21-.67-.53.6,1.77c0,.31,0,.63,0,1l-.4.45h.41c0,.08,0,.16,0,.24s0,.27,0,.53l-.08.2v1.17l.26-.35h0a6.81,6.81,0,0,0,.35,1h0l-.31,2.53L235,106a1.58,1.58,0,0,0,.51.12v1.37l.85-1.57a2.84,2.84,0,0,0,.61-.41l1.09,1.84-.72-2.22A4.56,4.56,0,0,0,238,104Z"/><path class="cls-9" d="M236.49,136l.51.55-.44-.73a6.62,6.62,0,0,0,.4-1.56,7.94,7.94,0,0,0,0-.85h1l-1.06-.92a9.54,9.54,0,0,0-1.2-3.52h0V125.4l-1,2.14a3.36,3.36,0,0,0-.79-.61l-.09-.22v-.87l-.84.66-.53.41-.64-2.4.26,2.74a5.8,5.8,0,0,0-1.09,2.51l-.2.27-.83-.67.75,2.24a11.91,11.91,0,0,0,0,1.2l-.51.56h.52c0,.11,0,.21,0,.32s0,.34.07.66l-.1.26v1.48l.33-.45h0a6.88,6.88,0,0,0,.43,1.33h0l-.39,3.2,1.68-1.71a1.71,1.71,0,0,0,.63.15v1.74l1.06-2a3.32,3.32,0,0,0,.76-.52l1.37,2.33-.9-2.81A6.34,6.34,0,0,0,236.49,136Z"/><ellipse class="cls-12" cx="233.68" cy="132.76" rx="4.52" ry="2.48" transform="matrix(0, -1, 1, 0, 99.77, 365.78)"/><path class="cls-11" d="M235.17,133.9l.27.26-.23-.34a3,3,0,0,0,.21-.74c0-.12,0-.26,0-.39H236l-.55-.44a4.23,4.23,0,0,0-.62-1.64h0V129l-.54,1a1.76,1.76,0,0,0-.41-.28l0-.11v-.4l-.44.3-.28.2-.33-1.13.13,1.29a2.72,2.72,0,0,0-.57,1.17l-.1.13-.43-.32.39,1.05a5.4,5.4,0,0,0,0,.56l-.26.27h.27c0,.05,0,.1,0,.14s0,.17,0,.32l-.05.12V134l.17-.21h0a3.29,3.29,0,0,0,.23.62h0l-.2,1.5.87-.81a.78.78,0,0,0,.33.07V136l.55-.93a1.85,1.85,0,0,0,.4-.24l.71,1.09-.47-1.32A2.57,2.57,0,0,0,235.17,133.9Z"/><path class="cls-9" d="M221.33,157.44l.52.56-.44-.74a6.53,6.53,0,0,0,.4-1.55,7.94,7.94,0,0,0,0-.85h1l-1.05-.93a9.54,9.54,0,0,0-1.2-3.52h0v-3.52l-1,2.15a3.3,3.3,0,0,0-.79-.61l-.09-.22v-.87l-.84.65-.53.42-.64-2.41.26,2.74a5.86,5.86,0,0,0-1.09,2.51l-.2.27-.84-.67.75,2.24c0,.4,0,.8,0,1.2l-.51.57h.52c0,.1,0,.21,0,.31s0,.34.07.67l-.1.25v1.48l.32-.44h0a8.29,8.29,0,0,0,.44,1.33h0l-.39,3.21,1.68-1.72a1.53,1.53,0,0,0,.63.15v1.75l1.06-2a3.27,3.27,0,0,0,.76-.51l1.36,2.33-.9-2.81A5.56,5.56,0,0,0,221.33,157.44Z"/><ellipse class="cls-13" cx="218.53" cy="154.25" rx="4.52" ry="2.48" transform="matrix(0, -1, 1, 0, 63.2, 372.01)"/><path class="cls-11" d="M220,155.39l.27.26-.23-.34a2.93,2.93,0,0,0,.21-.73c0-.13,0-.26,0-.4h.51l-.55-.43a4.28,4.28,0,0,0-.62-1.65h0v-1.64l-.54,1a1.81,1.81,0,0,0-.41-.29l0-.1v-.41l-.44.31-.28.19-.33-1.12.13,1.28a2.66,2.66,0,0,0-.57,1.18l-.1.12-.43-.31.39,1.05a5.12,5.12,0,0,0,0,.56l-.26.26H217s0,.1,0,.15a3,3,0,0,0,0,.31l-.05.12v.7l.17-.21h0a3.89,3.89,0,0,0,.23.62h0l-.2,1.5.87-.8a1.3,1.3,0,0,0,.33.07v.82l.55-.94a1.58,1.58,0,0,0,.39-.24l.72,1.09-.47-1.31A2.91,2.91,0,0,0,220,155.39Z"/><path class="cls-9" d="M236,175.85l.52.55-.44-.73a6.15,6.15,0,0,0,.39-1.56,5.92,5.92,0,0,0,.05-.84h1l-1.05-.93a9.92,9.92,0,0,0-1.2-3.52h0V165.3l-1,2.14a3.57,3.57,0,0,0-.79-.61l-.09-.22v-.87l-.84.66-.54.41-.63-2.4.25,2.74a6.05,6.05,0,0,0-1.09,2.51l-.19.27-.84-.67.75,2.24c0,.4-.05.8-.05,1.2l-.5.57h.52c0,.1,0,.2,0,.31s0,.34.06.66l-.1.26V176l.33-.45h0a8.08,8.08,0,0,0,.44,1.34h0l-.39,3.2,1.68-1.71a1.71,1.71,0,0,0,.62.15v1.74l1.07-2a3.27,3.27,0,0,0,.75-.52l1.37,2.33-.9-2.81A5.68,5.68,0,0,0,236,175.85Z"/><path class="cls-11" d="M234.69,173.8l.27.26-.23-.34a2.64,2.64,0,0,0,.2-.73,1.79,1.79,0,0,0,0-.4h.52l-.55-.43a4.23,4.23,0,0,0-.63-1.65h0v-1.65l-.53,1a1.76,1.76,0,0,0-.41-.28l0-.1v-.41l-.44.3-.27.2-.34-1.13.14,1.29a2.61,2.61,0,0,0-.57,1.17l-.1.13-.44-.31.39,1c0,.19,0,.38,0,.56l-.26.27h.27a.76.76,0,0,0,0,.15s0,.16,0,.31l0,.12v.69l.17-.21h0a3,3,0,0,0,.23.63h0l-.2,1.5.87-.81a.71.71,0,0,0,.32.07v.82l.56-.93a1.78,1.78,0,0,0,.39-.24l.71,1.09-.47-1.32A2.6,2.6,0,0,0,234.69,173.8Z"/><path class="cls-9" d="M238,221.39l.51.56-.44-.73a6.27,6.27,0,0,0,.4-1.56,7.94,7.94,0,0,0,0-.85h1l-1.06-.93a9.6,9.6,0,0,0-1.2-3.52h0v-3.52l-1,2.15a3.5,3.5,0,0,0-.79-.61l-.09-.22v-.87l-.85.65-.53.42-.64-2.41.26,2.74a6,6,0,0,0-1.09,2.51l-.2.27-.83-.67.75,2.24c0,.4,0,.8,0,1.2l-.51.57h.53c0,.1,0,.21,0,.31s0,.34.07.67l-.1.25v1.48l.33-.44h0a7.36,7.36,0,0,0,.43,1.33h0l-.38,3.21,1.67-1.72a1.57,1.57,0,0,0,.63.15v1.75l1.06-2a3.67,3.67,0,0,0,.76-.52l1.37,2.33-.9-2.81A5.56,5.56,0,0,0,238,221.39Z"/><path class="cls-11" d="M236.67,219.34l.27.26-.23-.34a2.56,2.56,0,0,0,.21-.73,2.61,2.61,0,0,0,0-.4h.51l-.54-.43a4.29,4.29,0,0,0-.63-1.65h0v-1.64l-.53,1a2.4,2.4,0,0,0-.41-.29l-.05-.1v-.41l-.44.31-.28.19-.33-1.12.13,1.28a2.65,2.65,0,0,0-.56,1.18l-.11.12-.43-.31.39,1.05a5.15,5.15,0,0,0,0,.56l-.27.26h.27a.76.76,0,0,1,0,.15c0,.05,0,.16,0,.31l-.05.12v.7l.17-.21h0a3.07,3.07,0,0,0,.22.62h0l-.2,1.5.87-.8a1.3,1.3,0,0,0,.33.07v.82l.55-.94a1.85,1.85,0,0,0,.4-.24l.71,1.09-.47-1.31A2.62,2.62,0,0,0,236.67,219.34Z"/><path class="cls-9" d="M244.84,262.24l.51.56-.44-.73a6.62,6.62,0,0,0,.4-1.56,7.94,7.94,0,0,0,0-.85h1l-1.06-.93a9.67,9.67,0,0,0-1.2-3.52h0V251.7l-1,2.14a3.11,3.11,0,0,0-.79-.61l-.09-.22v-.87l-.84.65-.53.42-.64-2.4.26,2.74a5.87,5.87,0,0,0-1.09,2.51l-.2.26-.83-.66.75,2.23c0,.4-.05.81-.05,1.2l-.51.57H239c0,.11,0,.21,0,.31s0,.35.07.67l-.1.25v1.49l.33-.45h0a7.11,7.11,0,0,0,.43,1.33h0l-.38,3.2,1.67-1.71a1.71,1.71,0,0,0,.63.15v1.74l1.06-2a3.67,3.67,0,0,0,.76-.52l1.37,2.33-.9-2.81A5.86,5.86,0,0,0,244.84,262.24Z"/><path class="cls-11" d="M243.52,260.2l.27.26-.23-.35a2.81,2.81,0,0,0,.21-.73c0-.13,0-.26,0-.39h.51l-.55-.44a4.17,4.17,0,0,0-.62-1.64h0v-1.65l-.54,1a1.5,1.5,0,0,0-.41-.28l0-.11v-.4l-.44.3-.28.2-.33-1.13.13,1.28a2.71,2.71,0,0,0-.56,1.18l-.11.12-.43-.31.39,1.05a5.25,5.25,0,0,0,0,.56l-.26.27h.27c0,.05,0,.1,0,.14s0,.16,0,.31l-.06.12v.7l.17-.21h0a3.56,3.56,0,0,0,.23.62h0l-.2,1.5.87-.8a1,1,0,0,0,.33.07v.82l.55-.93a1.9,1.9,0,0,0,.4-.25l.71,1.09-.47-1.31A2.57,2.57,0,0,0,243.52,260.2Z"/></g></g></svg>