<svg xmlns="http://www.w3.org/2000/svg" xmlns:xlink="http://www.w3.org/1999/xlink" viewBox="0 0 30.07 47.52"><defs><style>.cls-1{fill:#ccc;}.cls-1,.cls-3{stroke:#000;stroke-miterlimit:10;stroke-width:0.25px;}.cls-2{fill:url(#linear-gradient);}</style><linearGradient id="linear-gradient" x1="109.21" y1="15.43" x2="130.97" y2="15.43" gradientTransform="translate(-88.58 -61.53) rotate(32.93) scale(1.11 1.1)" gradientUnits="userSpaceOnUse"><stop offset="0.48" stop-color="#ebebeb"/><stop offset="1"/></linearGradient></defs><g id="Layer_2" data-name="Layer 2"><g id="Layer_1-2" data-name="Layer 1"><path class="cls-1" d="M24.19,34.35,26.07,36l-1.61-2.13a15,15,0,0,0,1.45-4.52,15.28,15.28,0,0,0,.16-2.45h3.6l-3.85-2.69A24.56,24.56,0,0,0,21.43,14h0V3.77L17.67,10a13.1,13.1,0,0,0-2.89-1.76l-.33-.64V5.06L11.37,7l-2,1.21-2.33-7L8,9.13a15.86,15.86,0,0,0-4,7.28l-.72.78-3-1.94L3,21.74a31.07,31.07,0,0,0-.17,3.48L1,26.86h1.9c0,.3,0,.61.07.9s.09,1,.24,1.93l-.36.74v4.3L4,33.44H4A19.9,19.9,0,0,0,5.62,37.3h0L4.22,46.6l6.12-5a7.86,7.86,0,0,0,2.3.43v5l3.89-5.77a13.36,13.36,0,0,0,2.77-1.5l5,6.76L21,38.45A16.72,16.72,0,0,0,24.19,34.35Z"/><ellipse class="cls-2" cx="13.91" cy="25.1" rx="13.11" ry="9.08" transform="translate(-11.3 38.8) rotate(-89.52)"/><path class="cls-3" d="M19.38,28.41l1,.75-.84-1a6.64,6.64,0,0,0,.76-2.12,7.24,7.24,0,0,0,.08-1.15h1.88l-2-1.26a10.85,10.85,0,0,0-2.29-4.77h0V14.1L16,17a6.73,6.73,0,0,0-1.5-.82l-.18-.3V14.7l-1.6.89-1,.56-1.21-3.26L11,16.61A7.19,7.19,0,0,0,8.9,20l-.38.37-1.59-.91,1.43,3a14.66,14.66,0,0,0-.09,1.62l-1,.77h1l0,.43c0,.14.05.46.13.9l-.19.35v2L8.89,28h0a8.62,8.62,0,0,0,.83,1.81h0L9,34.14l3.18-2.32a4.43,4.43,0,0,0,1.2.2v2.36l2-2.7a7.34,7.34,0,0,0,1.44-.7l2.6,3.16-1.72-3.81A7.82,7.82,0,0,0,19.38,28.41Z"/></g></g></svg>