<svg xmlns="http://www.w3.org/2000/svg" viewBox="0 0 260.27 469.76"><defs><style>.cls-1{fill:#4addff;stroke-width:9px;}.cls-1,.cls-5,.cls-6,.cls-7{stroke:#000;}.cls-1,.cls-2,.cls-3,.cls-4,.cls-5,.cls-6,.cls-7,.cls-8{stroke-miterlimit:10;}.cls-2{fill:#fff;stroke:#fff;stroke-width:0.25px;}.cls-3{fill:#00435f;stroke:#00435f;}.cls-4{fill:#005c94;stroke:#005c94;}.cls-5,.cls-6,.cls-7,.cls-8{stroke-width:2px;}.cls-6{fill:red;}.cls-7{fill:blue;}.cls-8{fill:#ff0;stroke:#ff0;}</style></defs><g id="Layer_2" data-name="Layer 2"><g id="Layer_1-2" data-name="Layer 1"><rect class="cls-1" x="4.5" y="4.5" width="251.27" height="460.76" rx="29.11"/><rect class="cls-2" x="72.01" y="9.56" width="116.25" height="450.63"/><path class="cls-3" d="M130.13,367.79l88.68,1.27-18.46-38H130.13Z"/><path class="cls-3" d="M130.21,210.83h87A26.41,26.41,0,0,0,216,190.1a34.64,34.64,0,0,0-12.68-13.45l-73.13,1.68Z"/><path class="cls-3" d="M218.81,347.54,206,319.93l.83-101.51h12Z"/><path class="cls-4" d="M130.13,367.79l-88.68,1.27,18.47-38h70.21Z"/><path class="cls-4" d="M130.05,210.83H43a26.34,26.34,0,0,1,1.23-20.73,34.65,34.65,0,0,1,12.69-13.45l73.12,1.68Z"/><path class="cls-4" d="M41.45,347.54l12.82-27.61-.83-101.51h-12Z"/><rect class="cls-5" x="103.93" y="257.66" width="57.13" height="37.34"/><path class="cls-6" d="M186.29,295H150.82V257.66h35.47a19.7,19.7,0,0,1,0,37.35Z"/><path class="cls-7" d="M73.82,295h35.46V257.66H73.82a19.7,19.7,0,0,0,0,37.35Z"/><path class="cls-8" d="M50.53,33.34H25.93a5,5,0,0,1-4.86-3.82,5.3,5.3,0,0,1,4.86-6h24.6a5.11,5.11,0,0,1,0,9.85Z"/><path class="cls-8" d="M235.54,33.34H210.93a5,5,0,0,1-4.85-3.82,5.3,5.3,0,0,1,4.85-6h24.61a5.12,5.12,0,0,1,0,9.85Z"/><path class="cls-8" d="M235.54,444.73H210.93a5,5,0,0,1-4.85-3.81,5.31,5.31,0,0,1,4.85-6h24.61a5.12,5.12,0,0,1,0,9.85Z"/><path class="cls-8" d="M50.53,444.73H25.93a5,5,0,0,1-4.86-3.81,5.31,5.31,0,0,1,4.86-6h24.6a5.11,5.11,0,0,1,0,9.85Z"/></g></g></svg>