<svg xmlns="http://www.w3.org/2000/svg" viewBox="0 0 1322.82 214.92"><defs><style>.cls-1{fill:gray;}.cls-1,.cls-2,.cls-3{stroke:#000;stroke-miterlimit:10;}.cls-2{fill:#fff;}.cls-3{fill:#42210b;}</style></defs><g id="Layer_2" data-name="Layer 2"><g id="Layer_1-2" data-name="Layer 1"><path class="cls-1" d="M266.9,37.9l-119.7,162c-3.7,7.06-11.59,6-15.95.55-4.63-5.74-6.28-17.6-.78-23.19l119.7-162c3.8-7.46,12.1-6.1,16.46-.44C271.13,20.64,272.56,32.47,266.9,37.9Z"/><path class="cls-1" d="M263.21,15.33l119.7,162c5.22,5,4.41,15.69.42,21.58-4.25,6.27-13,8.5-17.15,1.06L246.48,38c-5.51-5.13-4.51-16.37-.33-22.27C250.46,9.61,259.2,7.67,263.21,15.33Z"/><path class="cls-1" d="M131,37.9l119.7,162c3.7,7.06,11.59,6,16,.55,4.63-5.74,6.28-17.6.78-23.19l-119.7-162c-3.8-7.46-12.1-6.1-16.46-.44C126.79,20.64,125.36,32.47,131,37.9Z"/><path class="cls-1" d="M366,15.33l-119.7,162c-5.22,5-4.41,15.69-.41,21.58,4.24,6.27,13,8.5,17.14,1.06L382.77,38c5.52-5.13,4.51-16.37.33-22.27C378.8,9.61,370.05,7.67,366,15.33Z"/><ellipse class="cls-2" cx="299.44" cy="127.97" rx="5.95" ry="5.83"/><ellipse class="cls-2" cx="299.44" cy="127.97" rx="3.04" ry="2.98"/><ellipse class="cls-2" cx="320.57" cy="95.56" rx="5.95" ry="5.83"/><ellipse class="cls-2" cx="320.57" cy="95.56" rx="3.04" ry="2.98"/><ellipse class="cls-2" cx="342.47" cy="66.08" rx="5.95" ry="5.83"/><ellipse class="cls-2" cx="342.47" cy="66.08" rx="3.04" ry="2.98"/><ellipse class="cls-2" cx="258.18" cy="184.16" rx="5.95" ry="5.83"/><ellipse class="cls-2" cx="258.18" cy="184.16" rx="3.04" ry="2.98"/><ellipse class="cls-2" cx="276.86" cy="155.81" rx="5.95" ry="5.83"/><ellipse class="cls-2" cx="276.86" cy="155.81" rx="3.04" ry="2.98"/><ellipse class="cls-2" cx="150.07" cy="42.39" rx="5.95" ry="5.83"/><ellipse class="cls-2" cx="150.07" cy="42.39" rx="3.04" ry="2.98"/><ellipse class="cls-2" cx="171.59" cy="69.06" rx="5.95" ry="5.83"/><ellipse class="cls-2" cx="171.59" cy="69.06" rx="3.04" ry="2.98"/><ellipse class="cls-2" cx="192.86" cy="95.56" rx="5.95" ry="5.83"/><ellipse class="cls-2" cx="192.86" cy="95.56" rx="3.04" ry="2.98"/><ellipse class="cls-2" cx="210.83" cy="122.14" rx="5.95" ry="5.83"/><ellipse class="cls-2" cx="210.83" cy="122.14" rx="3.04" ry="2.98"/><ellipse class="cls-2" cx="228.55" cy="149.99" rx="5.95" ry="5.83"/><ellipse class="cls-2" cx="228.55" cy="149.99" rx="3.04" ry="2.98"/><path class="cls-1" d="M500.53,37.9l-119.7,162c-3.7,7.06-11.6,6-15.95.55-4.63-5.74-6.28-17.6-.78-23.19l119.7-162c3.79-7.46,12.1-6.1,16.46-.44C504.75,20.64,506.18,32.47,500.53,37.9Z"/><path class="cls-1" d="M496.84,15.33l119.7,162c5.22,5,4.4,15.69.41,21.58-4.24,6.27-13,8.5-17.14,1.06L480.11,38c-5.52-5.13-4.51-16.37-.33-22.27C484.08,9.61,492.83,7.67,496.84,15.33Z"/><path class="cls-1" d="M364.64,37.9l119.7,162c3.7,7.06,11.6,6,16,.55,4.63-5.74,6.28-17.6.79-23.19l-119.7-162c-3.8-7.46-12.11-6.1-16.47-.44C360.42,20.64,359,32.47,364.64,37.9Z"/><path class="cls-1" d="M599.66,15.33,480,177.28c-5.21,5-4.4,15.69-.41,21.58,4.25,6.27,13,8.5,17.15,1.06L616.4,38c5.51-5.13,4.5-16.37.33-22.27C612.42,9.61,603.67,7.67,599.66,15.33Z"/><ellipse class="cls-2" cx="533.06" cy="127.97" rx="5.95" ry="5.83"/><ellipse class="cls-2" cx="533.06" cy="127.97" rx="3.04" ry="2.98"/><ellipse class="cls-2" cx="554.2" cy="95.56" rx="5.95" ry="5.83"/><ellipse class="cls-2" cx="554.2" cy="95.56" rx="3.04" ry="2.98"/><ellipse class="cls-2" cx="576.1" cy="66.08" rx="5.95" ry="5.83"/><ellipse class="cls-2" cx="576.1" cy="66.08" rx="3.04" ry="2.98"/><ellipse class="cls-2" cx="491.8" cy="184.16" rx="5.95" ry="5.83"/><ellipse class="cls-2" cx="491.8" cy="184.16" rx="3.04" ry="2.98"/><ellipse class="cls-2" cx="510.48" cy="155.81" rx="5.95" ry="5.83"/><ellipse class="cls-2" cx="510.48" cy="155.81" rx="3.04" ry="2.98"/><ellipse class="cls-2" cx="383.69" cy="42.39" rx="5.95" ry="5.83"/><ellipse class="cls-2" cx="383.69" cy="42.39" rx="3.04" ry="2.98"/><ellipse class="cls-2" cx="405.21" cy="69.06" rx="5.95" ry="5.83"/><ellipse class="cls-2" cx="405.21" cy="69.06" rx="3.04" ry="2.98"/><ellipse class="cls-2" cx="426.48" cy="95.56" rx="5.95" ry="5.83"/><ellipse class="cls-2" cx="426.48" cy="95.56" rx="3.04" ry="2.98"/><ellipse class="cls-2" cx="444.45" cy="122.14" rx="5.95" ry="5.83"/><ellipse class="cls-2" cx="444.45" cy="122.14" rx="3.04" ry="2.98"/><ellipse class="cls-2" cx="462.18" cy="149.99" rx="5.95" ry="5.83"/><ellipse class="cls-2" cx="462.18" cy="149.99" rx="3.04" ry="2.98"/><path class="cls-1" d="M734.77,37.9l-119.7,162c-3.7,7.06-11.59,6-16,.55-4.63-5.74-6.28-17.6-.78-23.19L718,15.26c3.8-7.46,12.1-6.1,16.46-.44C739,20.64,740.43,32.47,734.77,37.9Z"/><path class="cls-1" d="M731.08,15.33l119.7,162c5.22,5,4.41,15.69.42,21.58-4.25,6.27-13,8.5-17.15,1.06L714.35,38c-5.51-5.13-4.51-16.37-.33-22.27C718.33,9.61,727.07,7.67,731.08,15.33Z"/><path class="cls-1" d="M598.89,37.9l119.7,162c3.7,7.06,11.59,6,15.95.55,4.63-5.74,6.28-17.6.78-23.19l-119.7-162c-3.8-7.46-12.1-6.1-16.46-.44C594.66,20.64,593.23,32.47,598.89,37.9Z"/><path class="cls-1" d="M833.91,15.33l-119.7,162c-5.22,5-4.41,15.69-.41,21.58,4.24,6.27,13,8.5,17.14,1.06L850.64,38c5.52-5.13,4.51-16.37.33-22.27C846.67,9.61,837.92,7.67,833.91,15.33Z"/><ellipse class="cls-2" cx="767.31" cy="127.97" rx="5.95" ry="5.83"/><ellipse class="cls-2" cx="767.31" cy="127.97" rx="3.04" ry="2.98"/><ellipse class="cls-2" cx="788.44" cy="95.56" rx="5.95" ry="5.83"/><ellipse class="cls-2" cx="788.44" cy="95.56" rx="3.04" ry="2.98"/><ellipse class="cls-2" cx="810.34" cy="66.08" rx="5.95" ry="5.83"/><ellipse class="cls-2" cx="810.34" cy="66.08" rx="3.04" ry="2.98"/><ellipse class="cls-2" cx="726.05" cy="184.16" rx="5.95" ry="5.83"/><ellipse class="cls-2" cx="726.05" cy="184.16" rx="3.04" ry="2.98"/><ellipse class="cls-2" cx="744.73" cy="155.81" rx="5.95" ry="5.83"/><ellipse class="cls-2" cx="744.73" cy="155.81" rx="3.04" ry="2.98"/><ellipse class="cls-2" cx="617.94" cy="42.39" rx="5.95" ry="5.83"/><ellipse class="cls-2" cx="617.94" cy="42.39" rx="3.04" ry="2.98"/><ellipse class="cls-2" cx="639.46" cy="69.06" rx="5.95" ry="5.83"/><ellipse class="cls-2" cx="639.46" cy="69.06" rx="3.04" ry="2.98"/><ellipse class="cls-2" cx="660.73" cy="95.56" rx="5.95" ry="5.83"/><ellipse class="cls-2" cx="660.73" cy="95.56" rx="3.04" ry="2.98"/><ellipse class="cls-2" cx="678.7" cy="122.14" rx="5.95" ry="5.83"/><ellipse class="cls-2" cx="678.7" cy="122.14" rx="3.04" ry="2.98"/><ellipse class="cls-2" cx="696.42" cy="149.99" rx="5.95" ry="5.83"/><ellipse class="cls-2" cx="696.42" cy="149.99" rx="3.04" ry="2.98"/><path class="cls-1" d="M968.4,37.9l-119.7,162c-3.7,7.06-11.6,6-16,.55-4.63-5.74-6.28-17.6-.78-23.19l119.7-162c3.79-7.46,12.1-6.1,16.46-.44C972.62,20.64,974.05,32.47,968.4,37.9Z"/><path class="cls-1" d="M964.71,15.33l119.7,162c5.22,5,4.4,15.69.41,21.58-4.24,6.27-13,8.5-17.14,1.06L948,38c-5.52-5.13-4.51-16.37-.33-22.27C952,9.61,960.7,7.67,964.71,15.33Z"/><path class="cls-1" d="M832.51,37.9l119.7,162c3.7,7.06,11.6,6,15.95.55,4.63-5.74,6.28-17.6.79-23.19l-119.7-162c-3.8-7.46-12.11-6.1-16.47-.44C828.29,20.64,826.86,32.47,832.51,37.9Z"/><path class="cls-1" d="M1067.53,15.33l-119.7,162c-5.21,5-4.4,15.69-.41,21.58,4.25,6.27,13,8.5,17.15,1.06l119.7-162c5.51-5.13,4.5-16.37.33-22.27C1080.29,9.61,1071.54,7.67,1067.53,15.33Z"/><ellipse class="cls-2" cx="1000.93" cy="127.97" rx="5.95" ry="5.83"/><ellipse class="cls-2" cx="1000.93" cy="127.97" rx="3.04" ry="2.98"/><ellipse class="cls-2" cx="1022.07" cy="95.56" rx="5.95" ry="5.83"/><ellipse class="cls-2" cx="1022.07" cy="95.56" rx="3.04" ry="2.98"/><ellipse class="cls-2" cx="1043.97" cy="66.08" rx="5.95" ry="5.83"/><ellipse class="cls-2" cx="1043.97" cy="66.08" rx="3.04" ry="2.98"/><ellipse class="cls-2" cx="959.67" cy="184.16" rx="5.95" ry="5.83"/><ellipse class="cls-2" cx="959.67" cy="184.16" rx="3.04" ry="2.98"/><ellipse class="cls-2" cx="978.35" cy="155.81" rx="5.95" ry="5.83"/><ellipse class="cls-2" cx="978.35" cy="155.81" rx="3.04" ry="2.98"/><ellipse class="cls-2" cx="851.56" cy="42.39" rx="5.95" ry="5.83"/><ellipse class="cls-2" cx="851.56" cy="42.39" rx="3.04" ry="2.98"/><ellipse class="cls-2" cx="873.08" cy="69.06" rx="5.95" ry="5.83"/><ellipse class="cls-2" cx="873.08" cy="69.06" rx="3.04" ry="2.98"/><ellipse class="cls-2" cx="894.35" cy="95.56" rx="5.95" ry="5.83"/><ellipse class="cls-2" cx="894.35" cy="95.56" rx="3.04" ry="2.98"/><ellipse class="cls-2" cx="912.32" cy="122.14" rx="5.95" ry="5.83"/><ellipse class="cls-2" cx="912.32" cy="122.14" rx="3.04" ry="2.98"/><ellipse class="cls-2" cx="930.05" cy="149.99" rx="5.95" ry="5.83"/><ellipse class="cls-2" cx="930.05" cy="149.99" rx="3.04" ry="2.98"/><path class="cls-1" d="M1202.64,37.9l-119.7,162c-3.7,7.06-11.59,6-16,.55-4.63-5.74-6.28-17.6-.78-23.19l119.7-162c3.8-7.46,12.1-6.1,16.46-.44C1206.87,20.64,1208.3,32.47,1202.64,37.9Z"/><path class="cls-1" d="M1199,15.33l119.7,162c5.22,5,4.41,15.69.42,21.58-4.25,6.27-13,8.5-17.15,1.06L1182.22,38c-5.51-5.13-4.51-16.37-.33-22.27C1186.2,9.61,1194.94,7.67,1199,15.33Z"/><path class="cls-1" d="M1066.76,37.9l119.7,162c3.7,7.06,11.59,6,16,.55,4.63-5.74,6.28-17.6.78-23.19l-119.7-162c-3.8-7.46-12.1-6.1-16.46-.44C1062.53,20.64,1061.1,32.47,1066.76,37.9Z"/><path class="cls-1" d="M1301.78,15.33l-119.7,162c-5.22,5-4.41,15.69-.41,21.58,4.24,6.27,13,8.5,17.14,1.06l119.7-162c5.52-5.13,4.51-16.37.33-22.27C1314.54,9.61,1305.79,7.67,1301.78,15.33Z"/><ellipse class="cls-2" cx="1235.18" cy="127.97" rx="5.95" ry="5.83"/><ellipse class="cls-2" cx="1235.18" cy="127.97" rx="3.04" ry="2.98"/><ellipse class="cls-2" cx="1256.31" cy="95.56" rx="5.95" ry="5.83"/><ellipse class="cls-2" cx="1256.31" cy="95.56" rx="3.04" ry="2.98"/><ellipse class="cls-2" cx="1278.21" cy="66.08" rx="5.95" ry="5.83"/><ellipse class="cls-2" cx="1278.21" cy="66.08" rx="3.04" ry="2.98"/><ellipse class="cls-2" cx="1193.92" cy="184.16" rx="5.95" ry="5.83"/><ellipse class="cls-2" cx="1193.92" cy="184.16" rx="3.04" ry="2.98"/><ellipse class="cls-2" cx="1212.6" cy="155.81" rx="5.95" ry="5.83"/><ellipse class="cls-2" cx="1212.6" cy="155.81" rx="3.04" ry="2.98"/><ellipse class="cls-2" cx="1107.33" cy="69.06" rx="5.95" ry="5.83"/><ellipse class="cls-2" cx="1107.33" cy="69.06" rx="3.04" ry="2.98"/><ellipse class="cls-2" cx="1128.6" cy="95.56" rx="5.95" ry="5.83"/><ellipse class="cls-2" cx="1128.6" cy="95.56" rx="3.04" ry="2.98"/><ellipse class="cls-2" cx="1146.57" cy="122.14" rx="5.95" ry="5.83"/><ellipse class="cls-2" cx="1146.57" cy="122.14" rx="3.04" ry="2.98"/><ellipse class="cls-2" cx="1164.29" cy="149.99" rx="5.95" ry="5.83"/><ellipse class="cls-2" cx="1164.29" cy="149.99" rx="3.04" ry="2.98"/><rect class="cls-3" x="0.5" y="0.5" width="140" height="213.92"/></g></g></svg>