<svg xmlns="http://www.w3.org/2000/svg" viewBox="0 0 567.24 232.48"><defs><style>.cls-1{fill:gray;}.cls-1,.cls-2{stroke:#000;stroke-miterlimit:10;}.cls-2{fill:#fff;}</style></defs><g id="Layer_2" data-name="Layer 2"><g id="Layer_1-2" data-name="Layer 1"><path class="cls-1" d="M77.54,26.6,25.18,221.07c-.87,7.92-8.62,9.78-14.64,6.34-6.41-3.66-12.27-14.11-9.2-21.32L53.71,11.63c.81-8.33,9-10.09,15.16-6.42C75.18,9,80.83,19.49,77.54,26.6Z"/><path class="cls-1" d="M77.82,13.19l53.25,194.22c3.06,6.55-1.55,16.22-7.4,20.28-6.21,4.31-15.2,3.23-16.37-5.2L54.05,28.27c-3.29-6.78,1.7-16.9,7.73-20.89C68,3.26,76.84,4.6,77.82,13.19Z"/><path class="cls-1" d="M1.83,30.19l54.43,193.9c1,7.91,8.73,9.68,14.72,6.18,6.36-3.73,12.11-14.23,9-21.41L25.51,15c-.9-8.32-9.15-10-15.24-6.25C4,12.56-1.53,23.11,1.83,30.19Z"/><path class="cls-1" d="M110.76,13.73,56.37,207.64c-3.1,6.53,1.46,16.23,7.28,20.32,6.2,4.35,15.18,3.32,16.4-5.1L134.44,29c3.33-6.76-1.6-16.9-7.6-20.94C120.65,3.86,111.79,5.15,110.76,13.73Z"/><ellipse class="cls-2" cx="88.5" cy="142.68" rx="5.95" ry="5.83" transform="translate(-44.9 40.73) rotate(-20.8)"/><ellipse class="cls-2" cx="88.5" cy="142.68" rx="3.04" ry="2.98" transform="translate(-44.9 40.73) rotate(-20.8)"/><ellipse class="cls-2" cx="96.75" cy="104.88" rx="5.95" ry="5.83" transform="translate(-30.94 41.19) rotate(-20.8)"/><ellipse class="cls-2" cx="96.75" cy="104.88" rx="3.04" ry="2.98" transform="translate(-30.94 41.19) rotate(-20.8)"/><ellipse class="cls-2" cx="106.75" cy="69.54" rx="5.95" ry="5.83" transform="translate(-17.74 42.44) rotate(-20.8)"/><ellipse class="cls-2" cx="106.75" cy="69.54" rx="3.04" ry="2.98" transform="matrix(0.93, -0.36, 0.36, 0.93, -17.74, 42.44)"/><ellipse class="cls-2" cx="69.88" cy="209.87" rx="5.95" ry="5.83" transform="translate(-69.98 38.5) rotate(-20.8)"/><ellipse class="cls-2" cx="69.88" cy="209.87" rx="3.04" ry="2.98" transform="translate(-69.98 38.5) rotate(-20.8)"/><ellipse class="cls-2" cx="77.28" cy="176.73" rx="5.95" ry="5.83" transform="translate(-57.73 38.96) rotate(-20.8)"/><ellipse class="cls-2" cx="77.28" cy="176.73" rx="3.04" ry="2.98" transform="translate(-57.73 38.96) rotate(-20.8)"/><ellipse class="cls-2" cx="18.05" cy="41.15" rx="5.83" ry="5.95" transform="translate(-26.83 43.42) rotate(-69.21)"/><ellipse class="cls-2" cx="18.05" cy="41.15" rx="2.98" ry="3.04" transform="translate(-26.83 43.42) rotate(-69.21)"/><ellipse class="cls-2" cx="28.7" cy="73.72" rx="5.83" ry="5.95" transform="translate(-50.41 74.39) rotate(-69.21)"/><ellipse class="cls-2" cx="28.7" cy="73.72" rx="2.98" ry="3.04" transform="matrix(0.35, -0.93, 0.93, 0.35, -50.41, 74.39)"/><ellipse class="cls-2" cx="39.18" cy="106.04" rx="5.83" ry="5.95" transform="translate(-73.86 105.04) rotate(-69.21)"/><ellipse class="cls-2" cx="39.18" cy="106.04" rx="2.98" ry="3.04" transform="translate(-73.86 105.04) rotate(-69.21)"/><ellipse class="cls-2" cx="46.55" cy="137.27" rx="5.83" ry="5.95" transform="translate(-98.31 132.08) rotate(-69.21)"/><ellipse class="cls-2" cx="46.55" cy="137.27" rx="2.98" ry="3.04" transform="translate(-98.31 132.08) rotate(-69.21)"/><ellipse class="cls-2" cx="53.23" cy="169.6" rx="5.83" ry="5.95" transform="translate(-124.21 159.18) rotate(-69.21)"/><ellipse class="cls-2" cx="53.23" cy="169.6" rx="2.98" ry="3.04" transform="translate(-124.21 159.18) rotate(-69.21)"/><path class="cls-1" d="M186.37,26.57,134,221c-.87,7.92-8.62,9.78-14.65,6.34-6.4-3.66-12.26-14.1-9.19-21.32L162.54,11.59c.81-8.33,9-10.09,15.16-6.42C184,9,189.66,19.45,186.37,26.57Z"/><path class="cls-1" d="M186.65,13.15,239.9,207.37c3.06,6.55-1.55,16.22-7.4,20.28-6.22,4.31-15.2,3.23-16.37-5.2L162.88,28.23c-3.29-6.78,1.7-16.9,7.73-20.89C176.81,3.22,185.67,4.57,186.65,13.15Z"/><path class="cls-1" d="M110.66,30.15l54.43,193.9c1,7.91,8.72,9.69,14.71,6.18,6.37-3.73,12.12-14.23,9-21.41L134.34,14.93c-.91-8.33-9.15-10-15.24-6.26C112.83,12.52,107.3,23.07,110.66,30.15Z"/><path class="cls-1" d="M219.59,13.69,165.2,207.6c-3.1,6.54,1.46,16.23,7.28,20.32,6.19,4.35,15.18,3.32,16.4-5.1l54.39-193.9c3.33-6.76-1.6-16.91-7.61-21C229.48,3.82,220.62,5.12,219.59,13.69Z"/><ellipse class="cls-2" cx="197.33" cy="142.65" rx="5.95" ry="5.83" transform="translate(-37.79 79.37) rotate(-20.8)"/><ellipse class="cls-2" cx="197.33" cy="142.65" rx="3.04" ry="2.98" transform="translate(-37.79 79.37) rotate(-20.8)"/><ellipse class="cls-2" cx="205.58" cy="104.84" rx="5.95" ry="5.83" transform="translate(-23.83 79.84) rotate(-20.8)"/><ellipse class="cls-2" cx="205.58" cy="104.84" rx="3.04" ry="2.98" transform="translate(-23.83 79.84) rotate(-20.8)"/><ellipse class="cls-2" cx="215.58" cy="69.5" rx="5.95" ry="5.83" transform="translate(-10.63 81.09) rotate(-20.8)"/><ellipse class="cls-2" cx="215.58" cy="69.5" rx="3.04" ry="2.98" transform="translate(-10.63 81.09) rotate(-20.8)"/><ellipse class="cls-2" cx="178.71" cy="209.83" rx="5.95" ry="5.83" transform="translate(-62.87 77.14) rotate(-20.8)"/><ellipse class="cls-2" cx="178.71" cy="209.83" rx="3.04" ry="2.98" transform="translate(-62.87 77.14) rotate(-20.8)"/><ellipse class="cls-2" cx="186.11" cy="176.7" rx="5.95" ry="5.83" transform="translate(-50.62 77.61) rotate(-20.8)"/><ellipse class="cls-2" cx="186.11" cy="176.7" rx="3.04" ry="2.98" transform="translate(-50.62 77.61) rotate(-20.8)"/><ellipse class="cls-2" cx="126.87" cy="41.11" rx="5.83" ry="5.95" transform="translate(43.41 145.14) rotate(-69.21)"/><ellipse class="cls-2" cx="126.87" cy="41.11" rx="2.98" ry="3.04" transform="matrix(0.35, -0.93, 0.93, 0.35, 43.41, 145.14)"/><ellipse class="cls-2" cx="137.53" cy="73.68" rx="5.83" ry="5.95" transform="translate(19.84 176.11) rotate(-69.21)"/><ellipse class="cls-2" cx="137.53" cy="73.68" rx="2.98" ry="3.04" transform="matrix(0.35, -0.93, 0.93, 0.35, 19.84, 176.11)"/><ellipse class="cls-2" cx="148.01" cy="106" rx="5.83" ry="5.95" transform="translate(-3.62 206.76) rotate(-69.21)"/><ellipse class="cls-2" cx="148.01" cy="106" rx="2.98" ry="3.04" transform="translate(-3.62 206.76) rotate(-69.21)"/><ellipse class="cls-2" cx="155.38" cy="137.23" rx="5.83" ry="5.95" transform="translate(-28.06 233.8) rotate(-69.21)"/><ellipse class="cls-2" cx="155.38" cy="137.23" rx="2.98" ry="3.04" transform="translate(-28.06 233.8) rotate(-69.21)"/><ellipse class="cls-2" cx="162.06" cy="169.56" rx="5.83" ry="5.95" transform="translate(-53.97 260.9) rotate(-69.21)"/><ellipse class="cls-2" cx="162.06" cy="169.56" rx="2.98" ry="3.04" transform="translate(-53.97 260.9) rotate(-69.21)"/><path class="cls-1" d="M293.18,25.16,240.82,219.62c-.87,7.93-8.62,9.78-14.65,6.34-6.41-3.66-12.27-14.1-9.19-21.31L269.34,10.19c.81-8.34,9.05-10.1,15.17-6.43C290.82,7.55,296.47,18,293.18,25.16Z"/><path class="cls-1" d="M293.46,11.74,346.71,206c3.06,6.55-1.55,16.22-7.4,20.27-6.22,4.32-15.2,3.23-16.37-5.19L269.69,26.83c-3.29-6.78,1.7-16.9,7.72-20.9C283.62,1.81,292.48,3.16,293.46,11.74Z"/><path class="cls-1" d="M217.47,28.75,271.9,222.64c1,7.92,8.72,9.69,14.71,6.18,6.37-3.72,12.12-14.23,9-21.41L241.14,13.52c-.9-8.32-9.15-10-15.23-6.26C219.64,11.11,214.1,21.67,217.47,28.75Z"/><path class="cls-1" d="M326.39,12.29,272,206.2c-3.1,6.53,1.45,16.22,7.28,20.32,6.19,4.35,15.18,3.32,16.4-5.1L350.07,27.51c3.34-6.76-1.6-16.91-7.6-20.94C336.29,2.41,327.42,3.71,326.39,12.29Z"/><ellipse class="cls-2" cx="304.13" cy="141.24" rx="5.95" ry="5.83" transform="translate(-30.33 117.21) rotate(-20.8)"/><ellipse class="cls-2" cx="304.13" cy="141.24" rx="3.04" ry="2.98" transform="translate(-30.33 117.21) rotate(-20.8)"/><ellipse class="cls-2" cx="312.38" cy="103.43" rx="5.95" ry="5.83" transform="translate(-16.37 117.68) rotate(-20.8)"/><ellipse class="cls-2" cx="312.38" cy="103.43" rx="3.04" ry="2.98" transform="translate(-16.37 117.68) rotate(-20.8)"/><ellipse class="cls-2" cx="322.39" cy="68.1" rx="5.95" ry="5.83" transform="translate(-3.17 118.93) rotate(-20.8)"/><ellipse class="cls-2" cx="322.39" cy="68.1" rx="3.04" ry="2.98" transform="matrix(0.93, -0.36, 0.36, 0.93, -3.17, 118.93)"/><ellipse class="cls-2" cx="285.52" cy="208.43" rx="5.95" ry="5.83" transform="translate(-55.41 114.98) rotate(-20.8)"/><ellipse class="cls-2" cx="285.52" cy="208.43" rx="3.04" ry="2.98" transform="translate(-55.41 114.98) rotate(-20.8)"/><ellipse class="cls-2" cx="292.92" cy="175.29" rx="5.95" ry="5.83" transform="translate(-43.16 115.45) rotate(-20.8)"/><ellipse class="cls-2" cx="292.92" cy="175.29" rx="3.04" ry="2.98" transform="translate(-43.16 115.45) rotate(-20.8)"/><ellipse class="cls-2" cx="233.68" cy="39.71" rx="5.83" ry="5.95" transform="translate(113.63 244.09) rotate(-69.21)"/><ellipse class="cls-2" cx="233.68" cy="39.71" rx="2.98" ry="3.04" transform="translate(113.63 244.09) rotate(-69.21)"/><ellipse class="cls-2" cx="244.34" cy="72.27" rx="5.83" ry="5.95" transform="translate(90.06 275.06) rotate(-69.21)"/><ellipse class="cls-2" cx="244.34" cy="72.27" rx="2.98" ry="3.04" transform="translate(90.06 275.06) rotate(-69.21)"/><ellipse class="cls-2" cx="254.82" cy="104.6" rx="5.83" ry="5.95" transform="translate(66.6 305.71) rotate(-69.21)"/><ellipse class="cls-2" cx="254.82" cy="104.6" rx="2.98" ry="3.04" transform="translate(66.6 305.71) rotate(-69.21)"/><ellipse class="cls-2" cx="262.19" cy="135.83" rx="5.83" ry="5.95" transform="translate(42.15 332.74) rotate(-69.21)"/><ellipse class="cls-2" cx="262.19" cy="135.83" rx="2.98" ry="3.04" transform="translate(42.15 332.74) rotate(-69.21)"/><ellipse class="cls-2" cx="268.87" cy="168.15" rx="5.83" ry="5.95" transform="translate(16.25 359.85) rotate(-69.21)"/><ellipse class="cls-2" cx="268.87" cy="168.15" rx="2.98" ry="3.04" transform="translate(16.25 359.85) rotate(-69.21)"/><path class="cls-1" d="M402,25.12,349.65,219.58c-.87,7.93-8.62,9.78-14.65,6.34-6.41-3.66-12.27-14.1-9.19-21.31L378.17,10.15c.81-8.34,9.05-10.1,15.17-6.42C399.65,7.51,405.3,18,402,25.12Z"/><path class="cls-1" d="M402.29,11.71l53.25,194.22c3.06,6.55-1.55,16.22-7.4,20.27-6.22,4.32-15.2,3.24-16.37-5.19L378.52,26.79c-3.3-6.78,1.7-16.9,7.72-20.9C392.45,1.77,401.31,3.12,402.29,11.71Z"/><path class="cls-1" d="M326.29,28.71,380.73,222.6c.95,7.92,8.72,9.69,14.71,6.19,6.37-3.73,12.12-14.24,9-21.41L350,13.48c-.9-8.32-9.15-10-15.23-6.26C328.47,11.07,322.93,21.63,326.29,28.71Z"/><path class="cls-1" d="M435.22,12.25,380.84,206.16c-3.1,6.53,1.45,16.23,7.28,20.32,6.19,4.35,15.18,3.32,16.4-5.1L458.9,27.47c3.34-6.76-1.6-16.91-7.6-20.94C445.12,2.38,436.25,3.67,435.22,12.25Z"/><ellipse class="cls-2" cx="412.96" cy="141.2" rx="5.95" ry="5.83" transform="translate(-23.23 155.86) rotate(-20.8)"/><ellipse class="cls-2" cx="412.96" cy="141.2" rx="3.04" ry="2.98" transform="translate(-23.23 155.86) rotate(-20.8)"/><ellipse class="cls-2" cx="421.21" cy="103.4" rx="5.95" ry="5.83" transform="translate(-9.26 156.32) rotate(-20.8)"/><ellipse class="cls-2" cx="421.21" cy="103.4" rx="3.04" ry="2.98" transform="translate(-9.26 156.32) rotate(-20.8)"/><ellipse class="cls-2" cx="431.22" cy="68.06" rx="5.95" ry="5.83" transform="translate(3.94 157.57) rotate(-20.8)"/><ellipse class="cls-2" cx="431.22" cy="68.06" rx="3.04" ry="2.98" transform="matrix(0.93, -0.36, 0.36, 0.93, 3.94, 157.57)"/><ellipse class="cls-2" cx="394.35" cy="208.39" rx="5.95" ry="5.83" transform="translate(-48.3 153.63) rotate(-20.8)"/><ellipse class="cls-2" cx="394.35" cy="208.39" rx="3.04" ry="2.98" transform="translate(-48.3 153.63) rotate(-20.8)"/><ellipse class="cls-2" cx="401.75" cy="175.25" rx="5.95" ry="5.83" transform="translate(-36.05 154.09) rotate(-20.8)"/><ellipse class="cls-2" cx="401.75" cy="175.25" rx="3.04" ry="2.98" transform="translate(-36.05 154.09) rotate(-20.8)"/><ellipse class="cls-2" cx="342.51" cy="39.67" rx="5.83" ry="5.95" transform="translate(183.87 345.81) rotate(-69.21)"/><ellipse class="cls-2" cx="342.51" cy="39.67" rx="2.98" ry="3.04" transform="translate(183.87 345.81) rotate(-69.21)"/><ellipse class="cls-2" cx="353.17" cy="72.24" rx="5.83" ry="5.95" transform="translate(160.3 376.78) rotate(-69.21)"/><ellipse class="cls-2" cx="353.17" cy="72.24" rx="2.98" ry="3.04" transform="translate(160.3 376.78) rotate(-69.21)"/><ellipse class="cls-2" cx="363.65" cy="104.56" rx="5.83" ry="5.95" transform="translate(136.84 407.43) rotate(-69.21)"/><ellipse class="cls-2" cx="363.65" cy="104.56" rx="2.98" ry="3.04" transform="translate(136.84 407.43) rotate(-69.21)"/><ellipse class="cls-2" cx="371.01" cy="135.79" rx="5.83" ry="5.95" transform="translate(112.4 434.47) rotate(-69.21)"/><ellipse class="cls-2" cx="371.01" cy="135.79" rx="2.98" ry="3.04" transform="translate(112.4 434.47) rotate(-69.21)"/><ellipse class="cls-2" cx="377.7" cy="168.11" rx="5.83" ry="5.95" transform="translate(86.49 461.57) rotate(-69.21)"/><ellipse class="cls-2" cx="377.7" cy="168.11" rx="2.98" ry="3.04" transform="translate(86.49 461.57) rotate(-69.21)"/><path class="cls-1" d="M508.77,23.71,456.4,218.18c-.87,7.92-8.62,9.78-14.64,6.34-6.41-3.66-12.27-14.11-9.19-21.32L484.93,8.74c.81-8.33,9-10.09,15.17-6.42C506.4,6.1,512.05,16.6,508.77,23.71Z"/><path class="cls-1" d="M509,10.3l53.25,194.22c3.07,6.55-1.54,16.22-7.39,20.28-6.22,4.31-15.2,3.23-16.38-5.2L485.27,25.38C482,18.6,487,8.48,493,4.49,499.21.37,508.06,1.72,509,10.3Z"/><path class="cls-1" d="M433.05,27.3l54.43,193.9c1,7.91,8.73,9.68,14.72,6.18,6.37-3.73,12.12-14.23,9-21.41L456.73,12.08c-.9-8.33-9.15-10-15.24-6.26C435.23,9.67,429.69,20.22,433.05,27.3Z"/><path class="cls-1" d="M542,10.84,487.6,204.75c-3.1,6.54,1.45,16.23,7.27,20.32,6.2,4.35,15.19,3.32,16.41-5.1L565.66,26.06c3.33-6.76-1.6-16.9-7.6-20.94C551.87,1,543,2.27,542,10.84Z"/><ellipse class="cls-2" cx="519.72" cy="139.79" rx="5.95" ry="5.83" transform="translate(-15.77 193.68) rotate(-20.8)"/><ellipse class="cls-2" cx="519.72" cy="139.79" rx="3.04" ry="2.98" transform="translate(-15.77 193.68) rotate(-20.8)"/><ellipse class="cls-2" cx="527.97" cy="101.99" rx="5.95" ry="5.83" transform="translate(-1.81 194.14) rotate(-20.8)"/><ellipse class="cls-2" cx="527.97" cy="101.99" rx="3.04" ry="2.98" transform="translate(-1.81 194.14) rotate(-20.8)"/><ellipse class="cls-2" cx="537.97" cy="66.65" rx="5.95" ry="5.83" transform="translate(11.39 195.39) rotate(-20.8)"/><ellipse class="cls-2" cx="537.97" cy="66.65" rx="3.04" ry="2.98" transform="translate(11.39 195.39) rotate(-20.8)"/><ellipse class="cls-2" cx="501.1" cy="206.98" rx="5.95" ry="5.83" transform="translate(-40.84 191.45) rotate(-20.8)"/><ellipse class="cls-2" cx="501.1" cy="206.98" rx="3.04" ry="2.98" transform="translate(-40.84 191.45) rotate(-20.8)"/><ellipse class="cls-2" cx="508.5" cy="173.85" rx="5.95" ry="5.83" transform="translate(-28.59 191.91) rotate(-20.8)"/><ellipse class="cls-2" cx="508.5" cy="173.85" rx="3.04" ry="2.98" transform="translate(-28.59 191.91) rotate(-20.8)"/><ellipse class="cls-2" cx="449.27" cy="38.26" rx="5.83" ry="5.95" transform="translate(254.06 444.71) rotate(-69.21)"/><ellipse class="cls-2" cx="449.27" cy="38.26" rx="2.98" ry="3.04" transform="translate(254.06 444.71) rotate(-69.21)"/><ellipse class="cls-2" cx="459.92" cy="70.83" rx="5.83" ry="5.95" transform="translate(230.48 475.68) rotate(-69.21)"/><ellipse class="cls-2" cx="459.92" cy="70.83" rx="2.98" ry="3.04" transform="translate(230.48 475.68) rotate(-69.21)"/><ellipse class="cls-2" cx="470.4" cy="103.15" rx="5.83" ry="5.95" transform="matrix(0.35, -0.93, 0.93, 0.35, 207.03, 506.33)"/><ellipse class="cls-2" cx="470.4" cy="103.15" rx="2.98" ry="3.04" transform="translate(207.03 506.33) rotate(-69.21)"/><ellipse class="cls-2" cx="477.77" cy="134.38" rx="5.83" ry="5.95" transform="translate(182.58 533.37) rotate(-69.21)"/><ellipse class="cls-2" cx="477.77" cy="134.38" rx="2.98" ry="3.04" transform="translate(182.58 533.37) rotate(-69.21)"/><ellipse class="cls-2" cx="484.46" cy="166.71" rx="5.83" ry="5.95" transform="translate(156.67 560.47) rotate(-69.21)"/><ellipse class="cls-2" cx="484.46" cy="166.71" rx="2.98" ry="3.04" transform="translate(156.67 560.47) rotate(-69.21)"/></g></g></svg>