<svg xmlns="http://www.w3.org/2000/svg" xmlns:xlink="http://www.w3.org/1999/xlink" viewBox="0 0 290.81 470.56"><defs><style>.cls-1{fill:#c1272d;stroke-width:6px;}.cls-1,.cls-2,.cls-5,.cls-6,.cls-7{stroke:#000;stroke-miterlimit:10;}.cls-2,.cls-4{fill:#fff;}.cls-2{stroke-width:5px;}.cls-3{fill:#070a52;}.cls-5{fill:none;}.cls-5,.cls-6,.cls-7{stroke-width:2px;}.cls-6{fill:#f5ff1f;}.cls-7,.cls-8{fill:#ff0;}</style></defs><g id="Layer_2" data-name="Layer 2"><g id="Layer_1-2" data-name="Layer 1"><rect class="cls-1" x="3" y="3" width="284.81" height="464.56" rx="60.76"/><rect class="cls-2" x="85.28" y="3" width="120.25" height="176.22"/><polygon class="cls-3" points="260.72 347.49 244.19 366.29 244.19 223.37 260.72 208.33 260.72 347.49"/><polygon class="cls-3" points="215.5 148.57 145.41 148.57 145.41 195.24 145.41 215.66 225.78 215.66 252.45 195.24 215.5 148.57"/><polygon class="cls-3" points="76.97 148.57 147.07 148.57 147.07 195.24 147.07 215.66 66.69 215.66 40.02 195.24 76.97 148.57"/><rect class="cls-4" x="58.91" y="208.33" width="172.99" height="254.16"/><polygon class="cls-3" points="31.75 347.49 48.28 366.29 48.28 223.37 31.75 208.33 31.75 347.49"/><polygon class="cls-3" points="145.41 324.9 145.41 431.94 202.37 431.94 221.15 409.28 221.15 324.9 145.41 324.9"/><polygon class="cls-3" points="145.41 324.9 145.41 431.94 88.44 431.94 69.66 409.28 69.66 324.9 145.41 324.9"/><polyline class="cls-5" points="161.76 19.46 161.76 95.22 183.28 118.19"/><polyline class="cls-5" points="129.05 19.46 129.05 95.22 107.53 118.19"/><path class="cls-6" d="M214.73,39.61l46.68,22.33c2.07-3.73,1.52-13.57-.87-22.33A30,30,0,0,0,255.05,29,29.29,29.29,0,0,0,245,19.63c-11.81-7-26.43-7.1-30.24-7.06Z"/><path class="cls-7" d="M76.08,39.61,29.4,61.94c-2.07-3.73-1.52-13.57.87-22.33A29.8,29.8,0,0,1,35.77,29a29.14,29.14,0,0,1,10.07-9.4c11.81-7,26.43-7.1,30.24-7.06Z"/><path class="cls-8" d="M257.7,423.76,216,453.3c-3.17,2.25-7.93,1.06-10.54-2.63s-2.16-8.57,1-10.82l41.67-29.54c3.19-1.88,7.64-.59,10.13,2.92S260.53,421.36,257.7,423.76Z"/><path class="cls-8" d="M33.11,423.76,74.78,453.3c3.17,2.25,7.93,1.06,10.54-2.63s2.16-8.57-1-10.82L42.64,410.31c-3.19-1.88-7.64-.59-10.13,2.92S30.28,421.36,33.11,423.76Z"/><image width="512" height="512" transform="translate(207.19 323.18) rotate(180) scale(0.23 0.23)" xlink:href="../../../thief.png"/></g></g></svg>