<svg xmlns="http://www.w3.org/2000/svg" viewBox="0 0 308 551.52"><defs><style>.cls-1,.cls-10,.cls-11,.cls-5,.cls-6,.cls-7,.cls-8,.cls-9{stroke:#000;}.cls-1,.cls-10,.cls-11,.cls-12,.cls-13,.cls-2,.cls-3,.cls-4,.cls-5,.cls-6,.cls-7,.cls-8,.cls-9{stroke-miterlimit:10;}.cls-1{stroke-width:8px;}.cls-2,.cls-5{fill:#fff;}.cls-13,.cls-2{stroke:#fff;}.cls-2,.cls-3,.cls-4,.cls-5{stroke-width:5px;}.cls-3{fill:#008aaa;stroke:#008aaa;}.cls-13,.cls-4{fill:#00477f;}.cls-4{stroke:#004394;}.cls-6,.cls-7{stroke-width:10px;}.cls-7{fill:none;}.cls-8{fill:red;}.cls-10,.cls-8,.cls-9{stroke-width:2px;}.cls-9{fill:blue;}.cls-12{fill:#ff0;stroke:#ff0;}</style></defs><g id="Layer_2" data-name="Layer 2"><g id="Layer_1-2" data-name="Layer 1"><path class="cls-1" d="M301.47,467.61A425.66,425.66,0,0,0,287,395.51a1.1,1.1,0,0,0-2-.19V101.26C285,40.53,253.32,4,200.64,4H159.69L110.45,36c-52.68,0-88.73,75.24-88.73,75.24,0,50,24.33,100,24.33,150.05,0,43.81-24.33,87.67-24.33,131.48a.68.68,0,0,1,0,.19.5.5,0,0,1,0,.12A425.92,425.92,0,0,0,6.53,467.61C5,481.46,4.22,494.57,4,506.8v.1c.2,2.9,1.86,21.52,17.72,32.87a42.38,42.38,0,0,0,24.05,7.75H262.23a42.38,42.38,0,0,0,24-7.75c15.86-11.35,17.51-30,17.72-32.87v-.1C303.78,494.57,303,481.46,301.47,467.61Z"/><polygon class="cls-2" points="209.38 522.58 98.62 522.58 98.62 184.1 209.38 179.03 209.38 522.58"/><path class="cls-3" d="M237.43,240.61c-8.9-27.63-29.61-36.12-31.11-37.12a1.84,1.84,0,0,0-.52-.23l-24.23-10.68L154,190.4V465.29h74.59c6.9,0,12.5-9.38,12.5-21V266.67A84.43,84.43,0,0,0,237.43,240.61Z"/><path class="cls-4" d="M67.48,240.61c8.9-27.63,29.61-36.12,31.1-37.12a2,2,0,0,1,.53-.23l24.23-10.68,27.57-2.18V464.27q0,.54,0,1H76.32c-6.9,0-12.5-9.38-12.5-21V266.67A83.83,83.83,0,0,1,67.48,240.61Z"/><path class="cls-5" d="M216.52,356.75h-125V283.1c4.08-3.42,27.62-22.46,64.42-21.8,34.36.62,56.08,18,60.62,21.8Z"/><path class="cls-6" d="M216.52,283.1a195.41,195.41,0,0,0,27.9-38.92c2.81-5.17,5.24-10.21,7.36-15.07"/><path class="cls-7" d="M226.78,471.41c28-39.32,32.15-81.09,13.74-101.54-3.77-4.19-10.85-10.1-24-13.12"/><path class="cls-7" d="M81.18,471.41c-28-39.32-32.15-81.09-13.74-101.54,3.77-4.19,10.85-10.1,24-13.12"/><path class="cls-6" d="M91.48,283.1a195.41,195.41,0,0,1-27.9-38.92C60.77,239,58.33,234,56.21,229.11"/><path class="cls-8" d="M207.81,337.24H178.6V295.1h29.21c8.95,2.49,15.15,11.65,14.86,21.76C222.4,326.47,216.32,334.87,207.81,337.24Z"/><path class="cls-9" d="M100.18,337.24H129.4V295.1H100.18c-8.94,2.49-15.14,11.65-14.85,21.76C85.6,326.47,91.68,334.87,100.18,337.24Z"/><rect class="cls-10" x="129.4" y="295.1" width="49.19" height="42.14"/><path class="cls-11" d="M140.44,111.32v0Z"/><line class="cls-11" x1="122.35" y1="138.5" x2="140.44" y2="111.32"/><path class="cls-11" d="M167.56,111.24v0Z"/><line class="cls-11" x1="185.64" y1="138.43" x2="167.56" y2="111.24"/><path class="cls-12" d="M276,508.65,246.14,532c-4.44,2.67-9.93,1.72-12.57-2-2.48-3.51-1.86-8.64,1.57-12.06L265,494.57c4.67-2.7,10.32-1.56,12.81,2.32C280,500.33,279.32,505.26,276,508.65Z"/><path class="cls-12" d="M29.91,506.49l29.85,23.33c4.44,2.66,9.94,1.72,12.58-2,2.48-3.51,1.85-8.64-1.58-12.07L40.91,492.41c-4.67-2.71-10.32-1.56-12.81,2.31C25.89,498.16,26.58,503.1,29.91,506.49Z"/><path class="cls-12" d="M95.85,84.78A40.37,40.37,0,0,1,75.49,120c-6.71,3.38-14.26,2.81-19-1.39A15.12,15.12,0,0,1,51.84,110L88.26,73.39Z"/><path class="cls-12" d="M219.09,28.37a40.34,40.34,0,0,0,20.36,35.25c6.71,3.39,14.26,2.81,19-1.39a15.08,15.08,0,0,0,4.64-8.63L226.68,17Z"/><polygon class="cls-2" points="98.62 179.03 122.35 144.86 98.62 65.82 129.4 52.45 178.6 60.28 209.38 46.12 209.38 179.03 98.62 179.03"/><polygon class="cls-13" points="100.29 207.21 107.5 234.55 112.9 234.55 108.4 198.14 98.79 201.14 100.29 207.21"/><polygon class="cls-13" points="127.01 201.14 119.5 233.39 123.25 234.55 138.41 203.58 128.96 201.14 127.01 201.14"/><polygon class="cls-13" points="128.96 237.77 160.93 220.74 166.03 225.53 130.61 239.4 128.96 237.77"/><polygon class="cls-13" points="125.5 233.39 138.41 217.84 147.49 218.76 127.31 236.36 125.5 233.39"/><polygon class="cls-13" points="115.3 230.07 112.9 207.19 123.7 207.19 117.1 233.39 115.3 230.07"/><polygon class="cls-13" points="128.96 242.07 125.5 246.77 142.31 263.58 153.72 255.8 128.96 242.07"/><path class="cls-13" d="M136.5,239.4l1.91,2.67,18.31,4.7s3.6-3.94,4.51-4.7S136.5,239.4,136.5,239.4Z"/><polygon class="cls-13" points="117.4 253.05 112.9 272.68 121.9 269.87 119.5 249.37 117.4 253.05"/><polygon class="cls-13" points="121.9 247.8 127.61 268.57 136.5 266.4 123.7 247.8 121.9 247.8"/><polygon class="cls-13" points="108.1 237.77 105.84 242.07 79.88 233.39 81.68 220.29 105.84 237.77 108.1 237.77"/><polygon class="cls-13" points="105.84 247.8 89.48 258.19 90.99 266.12 109.9 249.37 105.84 247.8"/><polygon class="cls-13" points="108.1 254.48 98.79 272.68 108.1 275.99 117.4 249.37 111.4 252.83 108.1 254.48"/><path class="cls-13" d="M78.68,239.4c3,.79,24.91,3.68,24.91,3.68l-3.9,4.72-21,5,10.81-6.71L82,245.18l-2.1,2.62Z"/></g></g></svg>