<svg xmlns="http://www.w3.org/2000/svg" viewBox="0 0 308 564.22"><defs><style>.cls-1,.cls-10,.cls-11,.cls-5,.cls-6,.cls-7,.cls-8,.cls-9{stroke:#000;}.cls-1,.cls-10,.cls-11,.cls-12,.cls-2,.cls-3,.cls-4,.cls-5,.cls-6,.cls-7,.cls-8,.cls-9{stroke-miterlimit:10;}.cls-1{stroke-width:8px;}.cls-2,.cls-5{fill:#fff;}.cls-2{stroke:#fff;}.cls-2,.cls-3,.cls-4,.cls-5{stroke-width:5px;}.cls-3{fill:#008aaa;stroke:#008aaa;}.cls-4{fill:#00477f;stroke:#004394;}.cls-6,.cls-7{stroke-width:10px;}.cls-7{fill:none;}.cls-8{fill:red;}.cls-10,.cls-8,.cls-9{stroke-width:2px;}.cls-9{fill:blue;}.cls-12{fill:#ff0;stroke:#ff0;}</style></defs><g id="Layer_2" data-name="Layer 2"><g id="Layer_1-2" data-name="Layer 1"><path class="cls-1" d="M301.47,480.31A425.66,425.66,0,0,0,287,408.21a1.1,1.1,0,0,0-2-.19V114C285,53.23,242.3,4,189.62,4H117.11C64.43,4,21.72,53.23,21.72,114V405.47a1.06,1.06,0,0,1,0,.31A425.92,425.92,0,0,0,6.53,480.31C5,494.16,4.22,507.27,4,519.5v.1c.2,2.9,1.86,21.52,17.72,32.87a42.38,42.38,0,0,0,24.05,7.75H262.23a42.38,42.38,0,0,0,24-7.75c15.86-11.35,17.51-30,17.72-32.87v-.1C303.78,507.27,303,494.16,301.47,480.31Z"/><rect class="cls-2" x="98.62" y="28.95" width="110.76" height="506.33"/><path class="cls-3" d="M237.43,253.31c-8.9-27.63-29.61-36.12-31.11-37.12a1.6,1.6,0,0,0-.52-.23l-24.23-10.68L154,203.1V478h74.59c6.9,0,12.5-9.38,12.5-20.95V279.37A84.43,84.43,0,0,0,237.43,253.31Z"/><path class="cls-4" d="M70.57,253.31c8.9-27.63,29.61-36.12,31.11-37.12a1.6,1.6,0,0,1,.52-.23l24.23-10.68L154,203.1V478H79.41c-6.9,0-12.5-9.38-12.5-20.95V279.37A84.13,84.13,0,0,1,70.57,253.31Z"/><path class="cls-5" d="M216.52,369.45h-125V295.8c4.08-3.42,27.62-22.46,64.42-21.8,34.37.62,56.08,18,60.62,21.8Z"/><path class="cls-6" d="M216.52,295.8a195.41,195.41,0,0,0,27.9-38.92c2.81-5.17,5.24-10.21,7.36-15.07"/><path class="cls-7" d="M226.78,484.11c28-39.32,32.15-81.09,13.74-101.54-3.77-4.19-10.85-10.1-24-13.12"/><path class="cls-7" d="M81.18,484.11C53.16,444.79,49,403,67.44,382.57c3.77-4.19,10.85-10.1,24-13.12"/><path class="cls-6" d="M91.48,295.8a195.41,195.41,0,0,1-27.9-38.92c-2.81-5.17-5.25-10.21-7.37-15.07"/><path class="cls-8" d="M207.81,349.93H178.6V307.8h29.21c8.95,2.49,15.15,11.65,14.86,21.76C222.4,339.17,216.32,347.57,207.81,349.93Z"/><path class="cls-9" d="M100.18,349.93H129.4V307.8H100.18c-8.94,2.49-15.14,11.65-14.85,21.76C85.6,339.17,91.68,347.57,100.18,349.93Z"/><rect class="cls-10" x="129.4" y="307.8" width="49.19" height="42.14"/><path class="cls-11" d="M140.44,124v0Z"/><line class="cls-11" x1="122.35" y1="151.2" x2="140.44" y2="124.02"/><path class="cls-11" d="M167.56,123.94v0Z"/><line class="cls-11" x1="185.64" y1="151.12" x2="167.56" y2="123.94"/><path class="cls-12" d="M276,521.35l-29.86,23.33c-4.44,2.67-9.93,1.72-12.57-2-2.48-3.51-1.86-8.64,1.57-12.06L265,507.27c4.67-2.7,10.32-1.56,12.81,2.32C280,513,279.32,518,276,521.35Z"/><path class="cls-12" d="M29.91,519.19l29.85,23.33c4.44,2.66,9.94,1.72,12.58-2,2.48-3.51,1.85-8.64-1.58-12.07L40.91,505.11c-4.67-2.71-10.32-1.56-12.81,2.31C25.89,510.86,26.58,515.8,29.91,519.19Z"/><path class="cls-12" d="M88.81,41.07A40.38,40.38,0,0,1,68.44,76.32c-6.71,3.39-14.25,2.81-19-1.39A15,15,0,0,1,44.8,66.3Q63,48,81.21,29.68Z"/><path class="cls-12" d="M219.09,41.07a40.34,40.34,0,0,0,20.36,35.25c6.71,3.39,14.26,2.81,19-1.39a15.08,15.08,0,0,0,4.64-8.63L226.68,29.68Z"/></g></g></svg>